<svg width="80" height="27" fill="none" xmlns="http://www.w3.org/2000/svg"><path d="M0 0h2.591v15.104H0V0zm11.366 4.491c1.173 0 2.096.37 2.769 1.108.685.725 1.028 1.691 1.028 2.9v6.605h-2.472V9.123c0-.712-.172-1.276-.514-1.692-.343-.43-.864-.644-1.563-.644-.554 0-1.094.168-1.622.503-.527.336-.91.759-1.147 1.269v6.545H5.373V4.773h2.472v1.289c.422-.51.93-.9 1.523-1.168a4.88 4.88 0 011.998-.403zM22.06 15.406c-1.411 0-2.525-.315-3.343-.946-.817-.645-1.279-1.497-1.384-2.558h2.531c.106.443.343.786.712 1.027.37.228.85.342 1.444.342.633 0 1.128-.107 1.484-.322.369-.228.553-.537.553-.926 0-.282-.052-.504-.158-.665-.105-.16-.316-.288-.633-.382-.316-.094-.784-.155-1.404-.182-1.556-.067-2.657-.349-3.303-.845-.633-.497-.95-1.229-.95-2.196 0-1.02.376-1.819 1.128-2.396.765-.577 1.82-.866 3.165-.866 1.279 0 2.294.275 3.045.826.752.55 1.207 1.302 1.365 2.255H23.84c-.29-.658-.943-.987-1.958-.987-.58 0-1.035.094-1.365.282-.33.188-.494.45-.494.786 0 .241.052.436.158.584.105.134.31.241.613.322.303.067.758.114 1.365.141 1.08.04 1.938.188 2.57.443.634.242 1.082.59 1.346 1.047.277.457.415 1.034.415 1.732 0 1.088-.395 1.94-1.187 2.558-.777.617-1.859.926-3.243.926zM34.128 4.491c.91 0 1.727.235 2.453.705.725.456 1.292 1.1 1.7 1.933.41.82.614 1.752.614 2.8 0 1.047-.205 1.986-.613 2.819-.41.832-.976 1.484-1.701 1.953-.726.47-1.543.705-2.453.705-1.345 0-2.4-.483-3.164-1.45v5.176H28.55V4.772h2.413v1.149c.369-.47.817-.826 1.345-1.068.54-.241 1.147-.362 1.82-.362zm-.415 8.62c.804 0 1.45-.283 1.938-.846.488-.578.732-1.356.732-2.337 0-.966-.244-1.731-.732-2.295-.488-.564-1.134-.846-1.938-.846-.646 0-1.2.16-1.662.483-.461.322-.824.772-1.087 1.35v2.638a3.584 3.584 0 001.107 1.349c.462.336 1.009.503 1.642.503zm8.557-6.123h-2.076V4.773h4.55v10.331H42.27V6.988zm0-4.128V0h2.473v2.86h-2.472zm11.692 1.913v2.215h-1.246c-.607 0-1.127.114-1.563.343a2.638 2.638 0 00-1.008.886v6.887h-2.473V4.773h2.473v1.51c.725-1.007 1.661-1.51 2.808-1.51h1.009zm11.541 5.115c0 .309-.013.537-.04.685h-7.93c.105.86.395 1.517.87 1.973.487.444 1.153.665 1.997.665.554 0 1.035-.1 1.444-.302.409-.201.732-.45.969-.745h2.591c-.185.59-.528 1.134-1.028 1.631a5.593 5.593 0 01-1.82 1.188 5.813 5.813 0 01-2.195.423c-1.042 0-1.972-.228-2.79-.684a4.916 4.916 0 01-1.878-1.954c-.449-.846-.673-1.813-.673-2.9 0-1.02.224-1.94.673-2.759a4.95 4.95 0 011.899-1.913c.804-.47 1.707-.705 2.71-.705 1.028 0 1.93.222 2.709.665a4.46 4.46 0 011.84 1.872c.434.806.652 1.76.652 2.86zM60.28 6.686c-.698 0-1.272.168-1.72.504-.449.322-.759.798-.93 1.43h5.221c-.29-1.29-1.147-1.934-2.57-1.934zM80 8.942c0 1.315-.257 2.463-.771 3.443a5.263 5.263 0 01-2.176 2.236c-.936.523-2.037.785-3.303.785-1.253 0-2.354-.262-3.303-.785a5.419 5.419 0 01-2.176-2.236c-.514-.98-.771-2.128-.771-3.443V0h2.63v9.123c0 1.168.317 2.101.95 2.8.646.697 1.536 1.046 2.67 1.046s2.017-.349 2.65-1.047c.646-.698.97-1.631.97-2.8V0H80v8.942zM47.43 22.934v-.886h.728v-.773c0-.355.105-.631.316-.83.211-.204.528-.306.95-.306h1.258v.886H49.51c-.243 0-.364.123-.364.37v.653h1.179v.886h-1.18v3.246h-.988v-3.246h-.728zm6.193-.886v.886h-.498a1.33 1.33 0 00-.625.137c-.174.091-.309.21-.404.354v2.755h-.989v-4.132h.99v.604c.29-.403.664-.604 1.123-.604h.403zm2.575 4.253c-.422 0-.796-.094-1.123-.282a2.022 2.022 0 01-.76-.781 2.34 2.34 0 01-.269-1.128c0-.419.09-.792.27-1.12.184-.332.437-.59.759-.773a2.213 2.213 0 011.123-.282c.422 0 .797.094 1.124.282.327.183.58.44.76.774.178.327.268.7.268 1.12 0 .418-.09.794-.269 1.127a1.95 1.95 0 01-.76.781 2.213 2.213 0 01-1.123.282zm0-.902c.354 0 .633-.115.839-.346.206-.236.309-.55.309-.943 0-.386-.103-.695-.31-.926-.205-.231-.484-.347-.838-.347-.358 0-.64.116-.846.347-.2.23-.3.54-.3.926 0 .392.1.707.3.943.206.23.488.346.846.346zm7.758-3.464c.38 0 .68.127.902.379.221.252.332.585.332.999v2.867h-.933v-2.545c0-.236-.059-.424-.175-.564-.116-.145-.287-.217-.514-.217a.889.889 0 00-.459.137 1.11 1.11 0 00-.364.338v2.851h-.933v-2.545c0-.236-.058-.424-.174-.564-.11-.145-.282-.217-.514-.217a.899.899 0 00-.499.16 1.1 1.1 0 00-.372.395v2.771h-.925v-4.132h.925v.451c.153-.177.338-.314.554-.41.222-.103.454-.154.696-.154.259 0 .483.06.673.178.19.118.335.284.435.499a1.67 1.67 0 01.585-.491c.238-.124.49-.186.76-.186zm5.933 4.366c-.565 0-1.01-.126-1.337-.378a1.43 1.43 0 01-.554-1.023h1.012a.653.653 0 00.285.41c.148.092.34.138.578.138.253 0 .45-.044.593-.13.148-.09.222-.214.222-.37a.481.481 0 00-.064-.266c-.042-.064-.126-.115-.253-.153a2.485 2.485 0 00-.561-.072c-.623-.027-1.063-.14-1.322-.339-.253-.198-.38-.491-.38-.878 0-.408.15-.727.451-.958.306-.231.728-.347 1.266-.347.512 0 .918.11 1.219.33.3.22.482.521.546.903h-.99c-.115-.263-.376-.395-.782-.395-.233 0-.415.038-.546.113-.132.075-.198.18-.198.314 0 .097.02.175.063.234.042.053.124.096.245.128.122.027.304.046.546.057.433.016.776.075 1.029.177.253.097.432.236.538.419.11.183.166.413.166.693 0 .435-.158.776-.475 1.023-.311.247-.744.37-1.297.37zm4.06-.121c-.422 0-.739-.099-.95-.297-.21-.205-.316-.484-.316-.838v-2.11h-.736v-.887h.736v-1.361h.989v1.361h1.297v.886h-1.297v1.982c0 .252.118.378.356.378h.941v.886h-1.02zm5.775-1.45c-.106.5-.335.887-.689 1.16-.348.274-.775.411-1.281.411-.422 0-.797-.094-1.124-.282a1.966 1.966 0 01-.751-.781 2.339 2.339 0 01-.27-1.128c0-.419.09-.792.27-1.12.179-.332.43-.59.751-.773a2.213 2.213 0 011.124-.282c.506 0 .933.14 1.281.42.348.273.578.665.689 1.175h-.981c-.19-.462-.52-.693-.99-.693-.353 0-.632.116-.838.347-.2.23-.3.54-.3.926 0 .392.1.704.3.935.206.23.485.346.839.346.242 0 .443-.054.6-.161.159-.113.286-.28.38-.5h.99z" fill="#4F008C"/></svg>